<?xml version="1.0" encoding="UTF-8"?>
<svg width="268px" height="39px" viewBox="0 0 268 39" version="1.1" xmlns="http://www.w3.org/2000/svg" xmlns:xlink="http://www.w3.org/1999/xlink">
    <!-- Generator: Sketch 52.6 (67491) - http://www.bohemiancoding.com/sketch -->
    <title>Group 9</title>
    <desc>Created with Sketch.</desc>
    <g id="Page-1" stroke="none" stroke-width="1" fill="none" fill-rule="evenodd">
        <g id="home:-HD-Copy-14" transform="translate(-81.000000, -101.000000)">
            <g id="Group-9" transform="translate(83.000000, 103.000000)">
                <g id="Group-Copy-2" stroke-width="2.06999983">
                    <polygon id="Fill-14" stroke="#FFFFFF" fill="#FFFFFF" points="23.8650195 17.534388 34.9660325 6.55407844 28.4718656 0 17.318486 11.0315407 6.64560545 0.430201315 2.99364908e-14 6.83409528 28.3558099 35 35 28.5954042"></polygon>
                    <polygon id="Fill-13" stroke="#10C15C" fill="#10C15C" points="7.00237625 21.8115942 13.1884058 28.0408651 6.69394642 34.4927536 0.507246377 28.2634827"></polygon>
                </g>
                <g id="pb_logo-copy" transform="translate(53.000000, 2.000000)" fill="#FFFFFF">
                    <g id="LOGO">
                        <path d="M7.44134396,6.72618979 L7.44134396,15.4251873 L13.1824485,15.4251873 C15.7197192,15.4251873 17.0547284,13.0933457 17.0547284,11.0759257 C17.0547284,9.14718866 15.8086884,6.72618979 13.3608577,6.72618979 L7.44134396,6.72618979 Z M0.898574887,0.941875726 L13.4940762,0.941875726 C20.4816914,0.941875726 23.5974975,6.00866358 23.5974975,11.0759257 C23.5974975,16.1872921 20.4816914,21.1639743 13.4940762,21.1639743 L7.44134396,21.1639743 L7.44134396,31.8358132 L0.898574887,31.8358132 L0.898574887,0.941875726 Z" id="Fill-5"></path>
                        <polygon id="Fill-6" points="27.1263279 31.8357183 33.2685 31.8357183 33.2685 11.0639748 27.1263279 11.0639748"></polygon>
                        <path d="M77.1457716,19.5052225 C76.8341439,16.9495393 74.5200024,15.9185399 72.7839255,15.9185399 C71.0483194,15.9185399 68.6894579,16.8599078 68.1556425,19.5052225 L68.642855,19.5052225 L69.1837314,19.5052225 L77.1457716,19.5052225 Z M82.2198422,28.0244828 C80.1278884,31.1634821 76.2556085,32.2841129 72.7396763,32.2841129 C66.7759133,32.2841129 61.8797811,27.8902727 61.8797811,21.2988009 C61.8797811,14.7078034 66.7759133,10.447699 72.7396763,10.447699 C78.65919,10.447699 83.376913,14.8870664 83.376913,21.4780639 C83.376913,22.0163271 83.3326637,22.8680634 83.2879437,23.4063267 L69.1159453,23.4063267 L68.0662025,23.4063267 C68.3778302,25.8273255 71.0040701,26.903852 73.1845224,26.903852 C74.8758793,26.903852 76.7009254,26.2759573 77.7243069,24.9305363 L82.2198422,28.0244828 Z" id="Fill-7"></path>
                        <polygon id="Fill-8" points="87.2615262 31.8357183 93.4484183 31.8357183 93.4484183 0.808519235 87.2615262 0.808519235"></polygon>
                        <path d="M105.071613,18.5637124 L105.071613,26.0514991 L111.347474,26.0514991 C113.527927,26.0514991 114.640748,24.0786577 114.640748,22.2405007 C114.640748,20.4915009 113.527927,18.5637124 111.213314,18.5637124 L105.071613,18.5637124 Z M110.189933,13.1383986 C111.88129,13.1383986 113.038361,11.7934519 113.038361,9.95482061 C113.038361,8.02655784 112.059228,6.72618979 110.145213,6.72618979 L105.071613,6.72618979 L105.071613,13.1383986 L110.189933,13.1383986 Z M121.494674,22.3747108 C121.494674,27.4865515 117.800803,31.8358132 111.703351,31.8358132 L98.5293146,31.8358132 L98.5293146,0.941875726 L110.813188,0.941875726 C116.331634,0.941875726 119.892287,4.26013804 119.892287,9.55124175 C119.892287,11.5686618 118.868905,14.1248193 115.70885,15.3350816 C119.759068,16.3665551 121.494674,19.8640804 121.494674,22.3747108 Z" id="Fill-9"></path>
                        <path d="M139.456997,19.5052225 C139.14537,16.9495393 136.831228,15.9185399 135.095151,15.9185399 C133.359545,15.9185399 131.000684,16.8599078 130.466397,19.5052225 L139.456997,19.5052225 Z M144.530597,28.0244828 C142.439114,31.1634821 138.566834,32.2841129 135.050902,32.2841129 C129.086668,32.2841129 124.191007,27.8902727 124.191007,21.2988009 C124.191007,14.7078034 129.086668,10.447699 135.050902,10.447699 C140.970416,10.447699 145.688139,14.8870664 145.688139,21.4780639 C145.688139,22.0163271 145.643419,22.8680634 145.599169,23.4063267 L130.377428,23.4063267 C130.689056,25.8273255 133.315296,26.903852 135.495748,26.903852 C137.187105,26.903852 139.012151,26.2759573 140.035533,24.9305363 L144.530597,28.0244828 Z" id="Fill-10"></path>
                        <path d="M201.829607,16.321692 C199.203367,16.321692 197.022915,18.2945334 197.022915,21.2988483 C197.022915,24.3927948 199.203367,26.3656362 201.829607,26.3656362 C204.410656,26.3656362 206.636299,24.3031633 206.636299,21.2988483 C206.636299,18.1603232 204.366407,16.321692 201.829607,16.321692 L201.829607,16.321692 Z M206.769988,31.8360029 L206.769988,29.2347925 C205.746136,31.1635295 203.253585,32.2841604 200.672536,32.2841604 C195.331558,32.2841604 190.613835,28.0245302 190.613835,21.4330584 C190.613835,14.7078508 195.331558,10.4477464 200.672536,10.4477464 C203.253585,10.4477464 205.746136,11.5242728 206.769988,13.4520614 L206.769988,0.870929314 L212.91169,0.870929314 L212.91169,31.8360029 L206.769988,31.8360029 Z" id="Fill-11"></path>
                        <polygon id="Fill-12" points="27.1263279 7.47017863 33.2685 7.47017863 33.2685 1.1400135 27.1263279 1.1400135"></polygon>
                        <polygon id="Fill-13" points="42.0356411 24.3759118 46.3786577 28.7816081 41.8191023 33.3447523 37.475615 28.939056"></polygon>
                        <polygon id="Fill-14" points="53.1002597 21.4952788 60.4847059 14.0753085 56.1647554 9.64637444 48.7454747 17.1009643 41.6458241 9.937084 37.225136 14.2645306 56.0875546 33.2977076 60.5073013 28.9697868"></polygon>
                        <path d="M180.833998,32.1958093 L174.730426,32.1958093 L174.730426,11.5374093 L180.833998,11.5374093 L180.863464,14.2510683 L180.863464,13.9188538 C180.863464,13.9188538 182.151245,11.0949427 186.630179,11.0949427 C188.079577,11.0949427 189.176864,11.3600433 190.142816,11.8470885 L189.045058,17.3767353 C187.947771,16.8460599 186.893791,16.7573769 185.92784,16.7573769 C182.414732,16.7573769 180.833998,19.5440154 180.833998,24.9854534 L180.833998,32.1958093 Z" id="Fill-15"></path>
                        <path d="M159.255758,26.5002731 C156.428984,26.5002731 154.137438,24.1916693 154.137438,21.3433795 C154.137438,18.495564 156.428984,16.1869602 159.255758,16.1869602 C162.082532,16.1869602 164.374078,18.495564 164.374078,21.3433795 C164.374078,24.1916693 162.082532,26.5002731 159.255758,26.5002731 L159.255758,26.5002731 Z M164.456457,10.8996504 L164.456457,11.6977975 C162.948687,10.883052 161.226262,10.420193 159.395096,10.420193 C159.122069,10.420193 158.852337,10.4334718 158.584017,10.4538641 C153.378611,10.5823834 148.455176,14.7234533 148.455176,21.3433795 C148.455176,28.0695357 153.42945,32.2395343 158.725709,32.2395343 C159.330605,32.2395343 160.2283,32.1304589 161.136822,31.886225 C162.319783,31.6917863 163.437312,31.3033831 164.456457,30.7527897 L164.456457,31.7662421 L170.576034,31.7662421 L170.576034,10.8996504 L164.456457,10.8996504 Z" id="Fill-16"></path>
                    </g>
                </g>
            </g>
        </g>
    </g>
</svg>