<?xml version="1.0" encoding="UTF-8"?>
<svg width="720px" height="435px" viewBox="0 0 720 435" version="1.1" xmlns="http://www.w3.org/2000/svg" xmlns:xlink="http://www.w3.org/1999/xlink">
    <!-- Generator: Sketch 52.6 (67491) - http://www.bohemiancoding.com/sketch -->
    <title>startup apps copy 2</title>
    <desc>Created with Sketch.</desc>
    <defs>
        <polygon id="path-1" points="0 0 721 0 721 457 0 457"></polygon>
    </defs>
    <g id="Page-1" stroke="none" stroke-width="1" fill="none" fill-rule="evenodd">
        <g id="startup-apps-copy-2" transform="translate(-1.000000, -22.000000)">
            <g id="simplifying-process">
                <g id="aircharge">
                    <g id="siz">
                        <mask id="mask-2" fill="white">
                            <use xlink:href="#path-1"></use>
                        </mask>
                        <g id="Mask"></g>
                        <circle id="Oval-Copy-24" fill="#FFFFFF" fill-rule="nonzero" mask="url(#mask-2)" cx="554" cy="115" r="3"></circle>
                        <circle id="Oval-Copy-33" fill="#FFFFFF" fill-rule="nonzero" mask="url(#mask-2)" cx="679" cy="141" r="3"></circle>
                        <circle id="Oval-Copy-30" fill="#FFFFFF" fill-rule="nonzero" mask="url(#mask-2)" cx="617" cy="39" r="3"></circle>
                        <circle id="Oval-Copy-31" fill="#FFFFFF" fill-rule="nonzero" opacity="0.5" mask="url(#mask-2)" cx="692" cy="67" r="3"></circle>
                        <circle id="Oval-Copy-25" fill="#FFFFFF" fill-rule="nonzero" mask="url(#mask-2)" cx="482" cy="42" r="3"></circle>
                        <circle id="Oval-Copy-26" fill="#FFFFFF" fill-rule="nonzero" opacity="0.5" mask="url(#mask-2)" cx="168" cy="109" r="3"></circle>
                        <circle id="Oval-Copy-27" fill="#FFFFFF" fill-rule="nonzero" opacity="0.5" mask="url(#mask-2)" cx="235" cy="25" r="3"></circle>
                        <circle id="Oval-Copy-28" fill="#FFFFFF" fill-rule="nonzero" mask="url(#mask-2)" cx="267" cy="87" r="3"></circle>
                        <circle id="Oval-Copy-29" fill="#FFFFFF" fill-rule="nonzero" mask="url(#mask-2)" cx="82" cy="39" r="3"></circle>
                        <circle id="Oval-Copy-32" fill="#FFFFFF" fill-rule="nonzero" mask="url(#mask-2)" cx="57" cy="157" r="3"></circle>
                        <g id="noun_Rocket_2864525-(1)" mask="url(#mask-2)">
                            <g transform="translate(361.353553, 222.767767) rotate(-45.000000) translate(-361.353553, -222.767767) translate(263.353553, 124.267767)">
                                <path d="M137.183766,80.2304474 C126.1571,80.2304474 117.183766,71.257114 117.183766,60.2304474 C117.183766,49.2037807 126.1571,40.2304474 137.183766,40.2304474 C148.210433,40.2304474 157.183766,49.2037807 157.183766,60.2304474 C157.183766,71.257114 148.210433,80.2304474 137.183766,80.2304474 Z" id="Shape" stroke-opacity="0.358072917" stroke="#FFFFFF" stroke-width="6" fill="none" fill-rule="nonzero"></path>
                                <path d="M195.792893,9.6830423 C195.792893,7.23117001 194.837928,4.92622639 193.102463,3.19063139 C191.366997,1.4550364 189.071408,0.5 186.601354,0.5 C149.320985,0.564281296 122.269762,3.25491269 86.9452358,38.5728934 C78.534197,46.9845601 70.8669291,56.5532902 64.1178968,67.0586906 C59.6277243,65.1669839 54.7702576,64.1843983 49.8852438,64.1843983 C37.176862,64.1843983 25.570363,70.5849788 18.8305131,81.3015892 L4.43257766,104.250012 C2.62365337,107.124304 2.31145324,109.695556 3.49597727,111.853571 C4.98351907,114.553385 8.11470273,115.517605 12.3018574,114.140148 C16.718571,112.689228 23.743074,110.94445 32.1265657,110.94445 C35.7811437,110.94445 39.417357,111.284222 42.9617468,111.936218 C41.6945815,115.930842 40.8773518,118.961246 40.4641457,120.660108 C39.7020101,123.644597 40.7579811,127.428011 42.9801115,129.650307 L66.6246802,153.305824 C68.8100811,155.491388 72.6942181,156.58417 75.6142075,155.840344 C77.3129435,155.417924 80.3523036,154.609816 84.3558112,153.342556 C86.8166828,166.547771 84.1354346,177.999025 82.1612279,183.995551 C81.7939336,185.106699 80.6828685,188.476876 82.6478928,191.204239 C83.7038638,192.664343 85.3750528,193.5 87.2390712,193.5 C88.726613,193.5 90.3059784,192.967384 92.0414438,191.874602 L114.997336,177.466408 C130.40533,167.787482 136.181033,148.576557 129.239171,132.175644 C139.75297,125.43529 149.330168,117.758267 157.722842,109.364966 C193.019821,74.0469858 195.710252,46.9753771 195.792893,9.6830423 Z" id="Shape" stroke-opacity="0.358072917" stroke="#FFFFFF" stroke-width="6" fill="none" fill-rule="nonzero"></path>
                                <path d="M0.922672061,170.104049 L43.6857754,170.104049 C46.2201946,170.104049 48.2747474,172.158602 48.2747474,174.693021 L48.2747474,174.693022 C48.2747474,177.227441 46.2201946,179.281994 43.6857754,179.281994 L0.922672061,179.281994 C-1.61174719,179.281994 -3.66629994,177.227441 -3.66629994,174.693022 L-3.66629994,174.693021 C-3.66629994,172.158602 -1.61174719,170.104049 0.922672061,170.104049 Z" id="Rectangle" stroke="none" fill="#FFFFFF" fill-rule="evenodd" transform="translate(22.304224, 174.693022) rotate(-45.000000) translate(-22.304224, -174.693022) "></path>
                                <path d="M2.82324617,147.149504 L32.6033831,147.149504 C35.1378024,147.149504 37.1923551,149.204057 37.1923551,151.738476 L37.1923551,151.738477 C37.1923551,154.272896 35.1378024,156.327449 32.6033831,156.327449 L2.82324617,156.327449 C0.288826917,156.327449 -1.76572583,154.272896 -1.76572583,151.738477 L-1.76572583,151.738476 C-1.76572583,149.204057 0.288826917,147.149504 2.82324617,147.149504 Z" id="Rectangle" stroke="none" fill="#FFFFFF" fill-rule="evenodd" transform="translate(17.713315, 151.738476) rotate(-45.000000) translate(-17.713315, -151.738476) "></path>
                                <path d="M45.2633598,159.809481 L45.2633604,159.809481 C47.7977796,159.809481 49.8523324,161.864034 49.8523324,164.398453 L49.8523324,194.17859 C49.8523324,196.713009 47.7977796,198.767562 45.2633604,198.767562 L45.2633598,198.767562 C42.7289405,198.767562 40.6743878,196.713009 40.6743878,194.17859 L40.6743878,164.398453 C40.6743878,161.864034 42.7289405,159.809481 45.2633598,159.809481 Z" id="Rectangle" stroke="none" fill="#FFFFFF" fill-rule="evenodd" transform="translate(45.263360, 179.288522) rotate(-135.000000) translate(-45.263360, -179.288522) "></path>
                            </g>
                        </g>
                        <path d="M177.547291,475.970399 C171.665349,475.730256 166.15768,474.038491 161.372955,471.243775 C155.378791,487.448512 139.788393,499 121.5,499 C111.544896,499 102.389225,495.577224 95.1456106,489.844299 C88.9918201,505.73315 73.561667,517 55.5,517 C40.0420627,517 26.5116197,508.747416 19.0741621,496.40774 C18.3909371,496.468808 17.6991112,496.5 17,496.5 C4.29745075,496.5 -6,486.202549 -6,473.5 C-6,460.797451 4.29745075,450.5 17,450.5 C18.1079686,450.5 19.1976392,450.578343 20.2637742,450.729793 C27.9020325,439.429243 40.8334199,432 55.5,432 C65.4551037,432 74.6107753,435.422776 81.8543894,441.155701 C88.0081799,425.26685 103.438333,414 121.5,414 C131.778811,414 141.205356,417.64899 148.554903,423.72224 C154.574302,413.138279 165.953534,406 179,406 C179,386.670034 194.670034,371 214,371 C214.335363,371 214.669624,371.004717 215.002721,371.014087 C215.263165,347.765853 234.190083,329 257.5,329 C280.972102,329 300,348.027898 300,371.5 C300,374.059696 299.773711,376.56654 299.340046,379.001618 C308.162264,379.085586 316.203924,382.433602 322.315513,387.896152 C331.101609,378.13646 343.834181,372 358,372 C375.854791,372 391.432665,381.748641 399.701266,396.213568 C407.443675,388.073904 418.379301,383 430.5,383 C442.844216,383 453.959248,388.262764 461.723795,396.666991 C461.249239,394.352154 461,391.955184 461,389.5 C461,369.893891 476.893891,354 496.5,354 C512.362213,354 525.794583,364.403392 530.346155,378.759221 C536.418559,373.903444 544.120212,371 552.5,371 C572.106109,371 588,386.893891 588,406.5 C588,410.161896 587.445554,413.694295 586.41603,417.017827 C593.267867,420.572373 598.403229,426.977124 600.251924,434.661887 C603.945632,432.341762 608.316123,431 613,431 C622.698317,431 631.053064,436.752509 634.838301,445.031588 C635.222871,445.010621 635.610195,445 636,445 C643.854692,445 650.70218,449.312358 654.304058,455.698672 C657.270265,447.700111 664.969466,442 674,442 C682.176094,442 689.26087,446.672488 692.729751,453.492889 C696.04017,450.690091 700.322714,449 705,449 C715.49341,449 724,457.50659 724,468 C724,478.49341 715.49341,487 705,487 C698.138513,487 692.126522,483.362871 688.786821,477.911404 C684.991603,481.67511 679.767305,484 674,484 C666.145308,484 659.29782,479.687642 655.695942,473.301328 C652.729735,481.299889 645.030534,487 636,487 C633.166113,487 630.463333,486.438666 627.996782,485.42112 C627.771751,500.138611 615.771063,512 601,512 C596.410825,512 592.089065,510.855064 588.304782,508.835255 C582.72185,554.020683 544.195854,589 497.5,589 C489.404689,589 481.554919,587.948712 474.079767,585.975212 C461.122993,593.006526 446.277859,597 430.5,597 C392.901077,597 360.598894,574.321961 346.525683,541.898116 C330.906266,569.991324 300.92299,589 266.5,589 C215.965945,589 175,548.034055 175,497.5 C175,490.084351 175.882171,482.874745 177.547295,475.970399 Z M164,340 C157.924868,340 153,335.075132 153,329 C153,322.924868 157.924868,318 164,318 C170.075132,318 175,322.924868 175,329 C175,335.075132 170.075132,340 164,340 Z M646,397 C642.134007,397 639,393.865993 639,390 C639,386.134007 642.134007,383 646,383 C649.865993,383 653,386.134007 653,390 C653,393.865993 649.865993,397 646,397 Z M554,268 C552.343146,268 551,266.656854 551,265 C551,263.343146 552.343146,262 554,262 C555.656854,262 557,263.343146 557,265 C557,266.656854 555.656854,268 554,268 Z" id="Combined-Shape" fill="#4A53EF" fill-rule="nonzero" mask="url(#mask-2)"></path>
                    </g>
                </g>
            </g>
        </g>
    </g>
</svg>