<?xml version="1.0" encoding="UTF-8"?>
<svg width="777px" height="732px" viewBox="0 0 777 732" version="1.1" xmlns="http://www.w3.org/2000/svg" xmlns:xlink="http://www.w3.org/1999/xlink">
    <title>Group 2</title>
    <g id="Page-2" stroke="none" stroke-width="1" fill="none" fill-rule="evenodd">
        <g id="Desktop-HD" transform="translate(-22.000000, -2234.000000)" fill-rule="nonzero">
            <g id="Group-2" transform="translate(22.000000, 2234.000000)">
                <path d="M324.032535,49.5291791 C351.739858,74.9660707 366.560054,113.926373 392.656486,149.34483 C419.075096,185.085272 456.769942,216.961883 465.790931,254.312256 C474.81192,291.662628 454.836873,334.164776 430.67351,373.125078 C406.510147,412.407367 378.158468,448.147809 341.430157,457.485402 C304.701845,466.50101 259.274723,448.791781 217.39156,443.31802 C175.18622,437.844258 136.524839,444.283978 99.1521712,435.590356 C62.1016814,426.574749 26.3399043,402.425802 10.5531739,368.617275 C-4.91137836,335.130734 -0.40088395,292.3066 5.39832315,252.702326 C11.5197084,213.098052 18.9298064,176.713637 29.2395079,134.211489 C39.5492094,91.3873551 52.7585144,42.1235018 84.0097971,18.940512 C115.583258,-4.56446381 164.876518,-2.31056203 209.981462,5.09511527 C255.086406,12.1788066 296.325212,24.0922875 324.032535,49.5291791 Z" id="Path" fill="#F8F6CF"></path>
                <path d="M686.251278,473.224917 C703.716363,489.261218 713.058154,513.823148 729.507828,536.152175 C746.160584,558.684193 769.921224,578.780318 775.607531,602.327292 C781.293838,625.874266 768.70273,652.669098 753.47155,677.231028 C738.240371,701.995949 720.36912,724.527967 697.217727,730.41471 C674.066334,736.098463 645.431716,724.933949 619.031005,721.483099 C592.427211,718.03225 568.057324,722.092073 544.499766,716.611312 C521.145291,710.927559 498.603145,695.703223 488.652107,674.389152 C478.904153,653.278071 481.747306,626.280248 485.402789,601.312336 C489.261355,576.344424 493.93225,553.406423 500.430886,526.611591 C506.929523,499.613767 515.255901,468.556121 534.954893,453.940758 C554.856968,439.122403 585.928575,440.543341 614.36011,445.212138 C642.791645,449.677943 668.786192,457.188616 686.251278,473.224917 Z" id="Path-Copy" fill="#5784BB"></path>
            </g>
        </g>
    </g>
</svg>