<?xml version="1.0" encoding="UTF-8"?>
<svg width="367px" height="166px" viewBox="0 0 367 166" version="1.1" xmlns="http://www.w3.org/2000/svg" xmlns:xlink="http://www.w3.org/1999/xlink">
    <title>Group 42</title>
    <g id="Page-1" stroke="none" stroke-width="1" fill="none" fill-rule="evenodd">
        <g id="Group-42" stroke="#4A53EF" stroke-width="4">
            <path d="M110.557395,48.2245988 C107.537039,51.6497241 104.861612,57.2837875 104.171134,63.9108814 C103.53819,69.9857765 104.590321,76.9090432 108.586698,83.8281989 L152.074486,159.12109 C153.421776,161.453728 155.587432,163.019574 157.999589,163.66565 C160.411943,164.31178 163.070893,164.038021 165.404642,162.69117 C167.738058,161.344511 169.304595,159.179963 169.950899,156.768888 C170.59715,154.358011 170.323289,151.700703 168.976192,149.368396 L155.749797,126.468784 L176.241996,126.468784 C178.936686,126.468784 181.376306,125.377043 183.14223,123.611826 C184.907864,121.8469 186,119.408695 186,116.715489 C186,114.022283 184.907864,111.584078 183.14223,109.819151 C181.376306,108.053935 178.936686,106.962194 176.241996,106.962194 L144.48315,106.962194 L110.557395,48.2245988 Z M45.8803042,140.420499 C43.3628915,137.658113 40.548389,135.80363 37.411353,134.897971 C34.0796444,133.936109 30.4070183,134.04692 26.3948328,135.16776 L18.4041134,149.008092 C17.0578308,151.339922 16.7841615,153.996687 17.4300202,156.407065 C18.075879,158.817442 19.6412659,160.981433 21.9730958,162.327716 C24.3049257,163.673999 26.9616903,163.947668 29.372068,163.301809 C31.7824458,162.65595 33.9464368,161.090563 35.2927194,158.758734 L45.8803042,140.420499 Z M114.119274,3.30479259 C111.78226,1.96185198 109.119593,1.68916319 106.70393,2.33339953 C104.290585,2.97701728 102.123132,4.53615898 100.77504,6.86015964 L93.8130787,18.8620184 L86.7032965,6.61607199 C85.3232048,4.38687766 83.1720959,2.90103529 80.7937586,2.30044317 C78.4120227,1.69899284 75.8015082,1.98533858 73.5053669,3.30479259 C71.1722491,4.64549474 69.6050024,6.79995467 68.9587133,9.20061455 C68.3130525,11.5989407 68.5869384,14.2423435 69.9327667,16.5624427 L82.5398843,38.2960941 L42.9295154,106.581167 L11.4916614,106.585013 C8.85779957,106.656636 6.48412029,107.765754 4.76882164,109.516965 C3.05595961,111.265689 2,113.655325 2,116.290654 C2,118.970743 3.09216804,121.396679 4.85664739,123.152875 C6.62454115,124.912469 9.06708412,126 11.7645786,126 L117.62834,125.71515 C119.243248,121.631492 118.629817,116.916103 116.459543,113.184721 C114.252017,109.389291 110.386972,106.581308 105.465156,106.581308 L65.4744683,106.581308 L117.831256,16.314012 C119.07853,14.0139247 119.296695,11.4214498 118.631213,9.07502198 C117.964682,6.72489128 116.41163,4.62207176 114.119274,3.30479259 Z" id="shape"></path>
            <g id="play-store" transform="translate(227.000000, 5.925532)" fill-rule="nonzero">
                <path d="M131.627878,66.0961537 L18.9277192,1.73619351 C16.9847396,0.627398785 14.8215507,0.0744680851 12.6583618,0.0744680851 C12.61432,0.0744680851 12.5710122,0.0803347238 12.5277043,0.0803347238 C12.2370281,0.0832680432 11.947086,0.09793464 11.6578778,0.120667865 C11.5272203,0.130934483 11.3972969,0.14486775 11.2666394,0.159534347 C11.0405579,0.184467561 10.8152104,0.216000744 10.590597,0.253400566 C10.5091195,0.267333833 10.4269081,0.271733812 10.3454307,0.287133739 L10.3498348,0.293000378 C8.94563385,0.551865812 7.57519827,1.04613012 6.30165476,1.78459327 C2.40101488,4.04544918 0,8.21002934 0,12.7148746 L0,141.434062 C0,145.938907 2.40101488,150.103487 6.30165476,152.364343 C7.57446424,153.102806 8.94489982,153.597804 10.3491008,153.856669 L10.3454307,153.861802 C10.4188337,153.875736 10.4929709,153.880136 10.5656399,153.891869 C10.8071361,153.932935 11.0493662,153.966669 11.2923304,153.992335 C11.4141796,154.005535 11.5352946,154.018735 11.6571438,154.028268 C11.9426818,154.051002 12.2274857,154.064201 12.5137578,154.067868 C12.5622038,154.068601 12.6099158,154.074468 12.6583618,154.074468 C14.8215507,154.074468 16.9847396,153.521537 18.9277192,152.412743 L131.627878,88.0520491 C135.568156,85.8014599 138,81.6156131 138,77.0799681 C138,77.0799681 138,77.0777681 138,77.0770347 C138,77.0770347 138,77.0748348 138,77.0741014 C138,77.0741014 138,77.0719014 138,77.0711681 C138,77.0711681 138,77.0689681 138,77.0682348 C138,72.533323 135.568156,68.3474763 131.627878,66.0961537 Z M87.0589937,53.3149479 L75.8532789,68.0013446 L47.3435211,30.6337892 L87.0589937,53.3149479 Z M126.163753,78.5018946 L47.3435211,123.514414 L96.6953506,58.8303216 L126.163019,75.6580415 C126.67317,75.9491734 126.990271,76.4947708 126.990271,77.0792347 C126.990271,77.6658986 126.672436,78.211496 126.163753,78.5018946 Z" id="Shape"></path>
            </g>
        </g>
    </g>
</svg>