<?xml version="1.0" encoding="UTF-8"?>
<svg width="947px" height="940px" viewBox="0 0 947 940" version="1.1" xmlns="http://www.w3.org/2000/svg" xmlns:xlink="http://www.w3.org/1999/xlink">
    <!-- Generator: Sketch 64 (93537) - https://sketch.com -->
    <title>Group 2 Copy</title>
    <desc>Created with Sketch.</desc>
    <g id="Page-1" stroke="none" stroke-width="1" fill="none" fill-rule="evenodd" fill-opacity="0.03893">
        <g id="Group-2-Copy" fill="#FFFFFF">
            <g id="Group-10" transform="translate(460.000000, 0.000000)">
                <g id="Group-8">
                    <g id="Group-7" transform="translate(15.000000, 89.000000)">
                        <path d="M146.720127,315.955838 C144.31214,317.338465 141.536543,318.056367 138.726565,317.996542 L138.563916,317.993883 L138.401268,317.995213 C138.360276,317.996542 138.317961,317.996542 138.275646,317.996542 C135.497404,317.996542 132.786601,317.266675 130.427541,315.882718 L-57,205.959877 L20.5183777,158 L217,275.581798 L146.720127,315.955838 Z" id="Fill-1-path" transform="translate(80.000000, 238.000000) rotate(-270.000000) translate(-80.000000, -238.000000) "></path>
                        <path d="M453.720127,214.955838 C451.31214,216.338465 448.536543,217.056367 445.726565,216.996542 L445.563916,216.993883 L445.401268,216.995213 C445.360276,216.996542 445.317961,216.996542 445.275646,216.996542 C442.497404,216.996542 439.786601,216.266675 437.427541,214.882718 L250,104.959877 L327.518378,57 L524,174.581798 L453.720127,214.955838 Z" id="Fill-1-path-Copy-5" transform="translate(387.000000, 137.000000) rotate(-270.000000) translate(-387.000000, -137.000000) "></path>
                    </g>
                    <g id="Group-7">
                        <path d="M117.8274,222.36467 C115.902769,223.470772 113.684317,224.045094 111.438386,223.997234 L111.308386,223.995107 L111.178386,223.99617 C111.145622,223.997234 111.111801,223.997234 111.07798,223.997234 C108.857414,223.997234 106.69075,223.41334 104.805225,222.306174 L-45,134.367901 L16.9581194,96 L174,190.065438 L117.8274,222.36467 Z" id="Fill-1-path" transform="translate(64.500000, 160.000000) rotate(-270.000000) translate(-64.500000, -160.000000) "></path>
                        <path d="M271.8274,172.36467 C269.902769,173.470772 267.684317,174.045094 265.438386,173.997234 L265.308386,173.995107 L265.178386,173.99617 C265.145622,173.997234 265.111801,173.997234 265.07798,173.997234 C262.857414,173.997234 260.69075,173.41334 258.805225,172.306174 L109,84.3679015 L170.958119,46 L328,140.065438 L271.8274,172.36467 Z" id="Fill-1-path-Copy-4" transform="translate(218.500000, 110.000000) rotate(-270.000000) translate(-218.500000, -110.000000) "></path>
                    </g>
                </g>
                <g id="Group-8-Copy" transform="translate(50.000000, 293.000000)">
                    <g id="Group-7" transform="translate(15.000000, 191.000000)">
                        <path d="M146.720127,264.955838 C144.31214,266.338465 141.536543,267.056367 138.726565,266.996542 L138.563916,266.993883 L138.401268,266.995213 C138.360276,266.996542 138.317961,266.996542 138.275646,266.996542 C135.497404,266.996542 132.786601,266.266675 130.427541,264.882718 L-57,154.959877 L20.5183777,107 L217,224.581798 L146.720127,264.955838 Z" id="Fill-1-path" transform="translate(80.000000, 187.000000) rotate(-270.000000) translate(-80.000000, -187.000000) "></path>
                        <path d="M300.720127,214.955838 C298.31214,216.338465 295.536543,217.056367 292.726565,216.996542 L292.563916,216.993883 L292.401268,216.995213 C292.360276,216.996542 292.317961,216.996542 292.275646,216.996542 C289.497404,216.996542 286.786601,216.266675 284.427541,214.882718 L97,104.959877 L174.518378,57 L371,174.581798 L300.720127,214.955838 Z" id="Fill-1-path-Copy-4" transform="translate(234.000000, 137.000000) rotate(-270.000000) translate(-234.000000, -137.000000) "></path>
                    </g>
                    <g id="Group-7">
                        <path d="M117.8274,273.36467 C115.902769,274.470772 113.684317,275.045094 111.438386,274.997234 L111.308386,274.995107 L111.178386,274.99617 C111.145622,274.997234 111.111801,274.997234 111.07798,274.997234 C108.857414,274.997234 106.69075,274.41334 104.805225,273.306174 L-45,185.367901 L16.9581194,147 L174,241.065438 L117.8274,273.36467 Z" id="Fill-1-path" transform="translate(64.500000, 211.000000) rotate(-270.000000) translate(-64.500000, -211.000000) "></path>
                        <path d="M271.8274,223.36467 C269.902769,224.470772 267.684317,225.045094 265.438386,224.997234 L265.308386,224.995107 L265.178386,224.99617 C265.145622,224.997234 265.111801,224.997234 265.07798,224.997234 C262.857414,224.997234 260.69075,224.41334 258.805225,223.306174 L109,135.367901 L170.958119,97 L328,191.065438 L271.8274,223.36467 Z" id="Fill-1-path-Copy-4" transform="translate(218.500000, 161.000000) rotate(-270.000000) translate(-218.500000, -161.000000) "></path>
                        <path d="M425.8274,172.36467 C423.902769,173.470772 421.684317,174.045094 419.438386,173.997234 L419.308386,173.995107 L419.178386,173.99617 C419.145622,173.997234 419.111801,173.997234 419.07798,173.997234 C416.857414,173.997234 414.69075,173.41334 412.805225,172.306174 L263,84.3679015 L324.958119,46 L482,140.065438 L425.8274,172.36467 Z" id="Fill-1-path-Copy-5" transform="translate(372.500000, 110.000000) rotate(-270.000000) translate(-372.500000, -110.000000) "></path>
                    </g>
                </g>
            </g>
            <g id="Group-10-Copy" transform="translate(0.000000, 275.000000)">
                <g id="Group-8">
                    <g id="Group-7" transform="translate(15.000000, 140.000000)">
                        <path d="M146.720127,315.955838 C144.31214,317.338465 141.536543,318.056367 138.726565,317.996542 L138.563916,317.993883 L138.401268,317.995213 C138.360276,317.996542 138.317961,317.996542 138.275646,317.996542 C135.497404,317.996542 132.786601,317.266675 130.427541,315.882718 L-57,205.959877 L20.5183777,158 L217,275.581798 L146.720127,315.955838 Z" id="Fill-1-path" transform="translate(80.000000, 238.000000) rotate(-270.000000) translate(-80.000000, -238.000000) "></path>
                        <path d="M300.720127,265.955838 C298.31214,267.338465 295.536543,268.056367 292.726565,267.996542 L292.563916,267.993883 L292.401268,267.995213 C292.360276,267.996542 292.317961,267.996542 292.275646,267.996542 C289.497404,267.996542 286.786601,267.266675 284.427541,265.882718 L97,155.959877 L174.518378,108 L371,225.581798 L300.720127,265.955838 Z" id="Fill-1-path-Copy-4" transform="translate(234.000000, 188.000000) rotate(-270.000000) translate(-234.000000, -188.000000) "></path>
                        <path d="M453.720127,214.955838 C451.31214,216.338465 448.536543,217.056367 445.726565,216.996542 L445.563916,216.993883 L445.401268,216.995213 C445.360276,216.996542 445.317961,216.996542 445.275646,216.996542 C442.497404,216.996542 439.786601,216.266675 437.427541,214.882718 L250,104.959877 L327.518378,57 L524,174.581798 L453.720127,214.955838 Z" id="Fill-1-path-Copy-5" transform="translate(387.000000, 137.000000) rotate(-270.000000) translate(-387.000000, -137.000000) "></path>
                    </g>
                    <g id="Group-7">
                        <path d="M117.8274,273.36467 C115.902769,274.470772 113.684317,275.045094 111.438386,274.997234 L111.308386,274.995107 L111.178386,274.99617 C111.145622,274.997234 111.111801,274.997234 111.07798,274.997234 C108.857414,274.997234 106.69075,274.41334 104.805225,273.306174 L-45,185.367901 L16.9581194,147 L174,241.065438 L117.8274,273.36467 Z" id="Fill-1-path" transform="translate(64.500000, 211.000000) rotate(-270.000000) translate(-64.500000, -211.000000) "></path>
                        <path d="M271.8274,223.36467 C269.902769,224.470772 267.684317,225.045094 265.438386,224.997234 L265.308386,224.995107 L265.178386,224.99617 C265.145622,224.997234 265.111801,224.997234 265.07798,224.997234 C262.857414,224.997234 260.69075,224.41334 258.805225,223.306174 L109,135.367901 L170.958119,97 L328,191.065438 L271.8274,223.36467 Z" id="Fill-1-path-Copy-4" transform="translate(218.500000, 161.000000) rotate(-270.000000) translate(-218.500000, -161.000000) "></path>
                        <path d="M425.8274,172.36467 C423.902769,173.470772 421.684317,174.045094 419.438386,173.997234 L419.308386,173.995107 L419.178386,173.99617 C419.145622,173.997234 419.111801,173.997234 419.07798,173.997234 C416.857414,173.997234 414.69075,173.41334 412.805225,172.306174 L263,84.3679015 L324.958119,46 L482,140.065438 L425.8274,172.36467 Z" id="Fill-1-path-Copy-5" transform="translate(372.500000, 110.000000) rotate(-270.000000) translate(-372.500000, -110.000000) "></path>
                    </g>
                </g>
                <g id="Group-8-Copy" transform="translate(50.000000, 344.000000)">
                    <g id="Group-7">
                        <path d="M117.8274,273.36467 C115.902769,274.470772 113.684317,275.045094 111.438386,274.997234 L111.308386,274.995107 L111.178386,274.99617 C111.145622,274.997234 111.111801,274.997234 111.07798,274.997234 C108.857414,274.997234 106.69075,274.41334 104.805225,273.306174 L-45,185.367901 L16.9581194,147 L174,241.065438 L117.8274,273.36467 Z" id="Fill-1-path" transform="translate(64.500000, 211.000000) rotate(-270.000000) translate(-64.500000, -211.000000) "></path>
                        <path d="M271.8274,223.36467 C269.902769,224.470772 267.684317,225.045094 265.438386,224.997234 L265.308386,224.995107 L265.178386,224.99617 C265.145622,224.997234 265.111801,224.997234 265.07798,224.997234 C262.857414,224.997234 260.69075,224.41334 258.805225,223.306174 L109,135.367901 L170.958119,97 L328,191.065438 L271.8274,223.36467 Z" id="Fill-1-path-Copy-4" transform="translate(218.500000, 161.000000) rotate(-270.000000) translate(-218.500000, -161.000000) "></path>
                        <path d="M425.8274,172.36467 C423.902769,173.470772 421.684317,174.045094 419.438386,173.997234 L419.308386,173.995107 L419.178386,173.99617 C419.145622,173.997234 419.111801,173.997234 419.07798,173.997234 C416.857414,173.997234 414.69075,173.41334 412.805225,172.306174 L263,84.3679015 L324.958119,46 L482,140.065438 L425.8274,172.36467 Z" id="Fill-1-path-Copy-5" transform="translate(372.500000, 110.000000) rotate(-270.000000) translate(-372.500000, -110.000000) "></path>
                    </g>
                </g>
            </g>
        </g>
    </g>
</svg>