<svg width="375" height="213" viewBox="0 0 375 213" fill="none" xmlns="http://www.w3.org/2000/svg">
<path fill-rule="evenodd" clip-rule="evenodd" d="M90.8949 20.3495C103.812 3.0845 121.769 3 121.769 3C121.769 3 124.44 19.2323 111.608 34.8692C97.9068 51.5663 82.3328 48.8338 82.3328 48.8338C82.3328 48.8338 79.4088 35.7024 90.8949 20.3495" fill="white"/>
<path fill-rule="evenodd" clip-rule="evenodd" d="M82.3902 61.3597C89.1075 61.3597 101.573 52 117.8 52C145.732 52 156.719 72.1473 156.719 72.1473C156.719 72.1473 135.228 83.2853 135.228 110.312C135.228 140.801 162 151.308 162 151.308C162 151.308 143.285 204.704 118.008 204.704C106.397 204.704 97.3718 196.773 85.1385 196.773C72.6725 196.773 60.3012 205 52.2442 205C29.1615 205 0 154.349 0 113.634C0 73.5752 24.6836 52.5612 47.8355 52.5612C62.886 52.5612 74.5656 61.3597 82.3902 61.3597" fill="white"/>
<path fill-rule="evenodd" clip-rule="evenodd" d="M207.062 70C203.426 70 200.341 71.2596 197.805 73.7789C195.268 76.2981 194 79.3211 194 82.8494V137.022C194 140.639 195.268 143.701 197.805 146.221C200.341 148.74 203.426 150 207.062 150C210.696 150 213.762 148.74 216.259 146.221C218.751 143.702 220 140.639 220 137.022V82.8494C220 79.3207 218.732 76.2981 216.195 73.7789C213.659 71.2596 210.614 70 207.062 70Z" fill="white"/>
<path fill-rule="evenodd" clip-rule="evenodd" d="M312.783 18.7565L321.61 2.6983C322.19 1.63518 321.984 0.819945 320.99 0.246701C319.912 -0.247602 319.083 0.00286913 318.504 0.980409L309.553 17.167C301.677 13.7331 293.347 12.013 284.562 12.013C275.776 12.013 267.445 13.7334 259.572 17.167L250.621 0.980409C250.039 0.00286913 249.211 -0.245389 248.135 0.246701C247.139 0.822527 246.933 1.63518 247.515 2.6983L256.342 18.7565C247.391 23.258 240.262 29.5272 234.958 37.5777C229.653 45.6326 227 54.4349 227 64H342C342 54.4371 339.346 45.6344 334.042 37.5777C328.738 29.5272 321.65 23.258 312.783 18.7565ZM261.506 42.5222C260.508 43.5089 259.317 44 257.933 44C256.546 44 255.379 43.5089 254.428 42.5222C253.476 41.5401 253 40.369 253 38.9977C253 37.631 253.476 36.4576 254.428 35.4732C255.379 34.4911 256.549 34 257.933 34C259.317 34 260.508 34.4911 261.506 35.4732C262.5 36.4599 263 37.631 263 38.9977C262.997 40.3667 262.498 41.5401 261.506 42.5222ZM311.067 44C312.449 44 313.619 43.5089 314.572 42.5222C315.524 41.5401 316 40.3667 316 38.9977C316 37.631 315.525 36.4599 314.572 35.4732C313.618 34.4911 312.452 34 311.067 34C309.68 34 308.489 34.4911 307.494 35.4732C306.497 36.4576 306 37.631 306 38.9977C306 40.369 306.497 41.5401 307.494 42.5222C308.489 43.5089 309.68 44 311.067 44Z" fill="white"/>
<path fill-rule="evenodd" clip-rule="evenodd" d="M227 156.905C227 160.818 228.335 164.13 231.007 166.849C233.68 169.567 236.936 170.926 240.779 170.926H250.05L250.177 199.868C250.177 203.523 251.429 206.626 253.934 209.176C256.44 211.725 259.448 213 262.954 213C266.544 213 269.593 211.725 272.099 209.176C274.604 206.626 275.857 203.523 275.857 199.868V170.929H293.145V199.868C293.145 203.523 294.397 206.626 296.902 209.176C299.408 211.725 302.455 213 306.047 213C309.636 213 312.686 211.725 315.191 209.176C317.697 206.626 318.949 203.523 318.949 199.868V170.929H328.345C332.103 170.929 335.317 169.57 337.993 166.851C340.664 164.133 342 160.82 342 156.907V72H227V156.905Z" fill="white"/>
<path fill-rule="evenodd" clip-rule="evenodd" d="M361.937 70C358.384 70 355.341 71.241 352.805 73.7163C350.268 76.1961 349 79.2423 349 82.8494V137.022C349 140.639 350.268 143.701 352.805 146.221C355.341 148.74 358.387 150 361.937 150C365.571 150 368.659 148.74 371.195 146.221C373.732 143.701 375 140.639 375 137.022V82.8494C375 79.2419 373.732 76.1961 371.195 73.7163C368.659 71.241 365.571 70 361.937 70Z" fill="white"/>
</svg>
