<svg width="143" height="143" viewBox="0 0 143 143" fill="none" xmlns="http://www.w3.org/2000/svg">
<g filter="url(#filter0_d)">
<path fill-rule="evenodd" clip-rule="evenodd" d="M46 127C28.3269 127 14 112.673 14 95L14 44C14 26.3269 28.3269 12 46 12H97C114.673 12 129 26.3269 129 44V95C129 112.673 114.673 127 97 127H46Z" fill="url(#paint0_linear)"/>
</g>
<path d="M56.949 48.7509L56.9764 48.7601L57.0052 48.7627C57.9822 48.8512 58.8879 48.2303 59.0711 47.2386C60.533 40.5017 66.6061 35.5995 73.6028 35.5995C81.6758 35.5995 88.1317 41.8776 88.3641 49.9195C88.3662 50.9173 89.1814 51.7124 90.1553 51.8006C94.3244 52.1782 97.4335 55.6513 97.4335 59.8084C97.4335 64.2653 93.7934 67.8932 89.3178 67.8932H56.1694C50.8311 67.8162 46.5665 63.5629 46.5665 58.2505C46.5665 53.0134 50.8333 48.6858 56.1677 48.6858C56.4946 48.6858 56.7611 48.6886 56.949 48.7509ZM103.25 97.9768C103.25 93.9574 100.529 90.7081 96.9171 89.8325V88.24C96.9171 83.1144 92.7373 79.0321 87.6759 79.0321H73.931V71.8205H89.3178C95.9443 71.8205 101.295 66.4905 101.295 59.8863C101.295 54.2963 97.4637 49.5655 92.1266 48.2339C91.0195 38.8472 83.2097 31.75 73.5246 31.75C65.3444 31.75 58.0237 37.1933 55.6673 44.9194C48.4243 45.1719 42.6264 51.0863 42.6264 58.4063C42.6264 65.8674 48.6812 71.8984 56.1677 71.8984H69.9909V79.11H56.3241C51.1817 79.11 47.0829 83.273 47.0829 88.3179V89.9104C43.4724 90.7857 40.75 94.0325 40.75 97.9768C40.75 102.556 44.4593 106.25 49.053 106.25C53.6467 106.25 57.3559 102.556 57.3559 97.9768C57.3559 94.1104 54.6349 90.7887 51.023 89.9104V88.3179C51.023 85.341 53.4121 82.9595 56.4023 82.9595H70.1472V89.9104C66.5367 90.7857 63.8143 94.0325 63.8143 97.9768C63.8143 102.556 67.5236 106.25 72.1173 106.25C76.711 106.25 80.4202 102.556 80.4202 97.9768C80.4202 94.1104 77.6992 90.7887 74.0873 89.9104V82.9595H87.5977C90.5879 82.9595 92.977 85.341 92.977 88.3179V89.9104C89.3664 90.7857 86.6441 94.0325 86.6441 97.9768C86.6441 102.556 90.3533 106.25 94.947 106.25C99.5407 106.25 103.25 102.556 103.25 97.9768ZM53.3376 97.8989C53.3376 100.328 51.3422 102.245 48.9748 102.245C46.6101 102.245 44.6119 100.253 44.6119 97.8989C44.6119 95.4701 46.6073 93.5532 48.9748 93.5532C51.3422 93.5532 53.3376 95.4701 53.3376 97.8989ZM76.3238 97.8989C76.3238 100.328 74.3284 102.245 71.9609 102.245C69.5962 102.245 67.598 100.253 67.598 97.8989C67.598 95.4701 69.5934 93.5532 71.9609 93.5532C74.3284 93.5532 76.3238 95.4701 76.3238 97.8989ZM94.947 102.245C92.5069 102.245 90.5842 100.255 90.5842 97.8989C90.5842 95.4701 92.5796 93.5532 94.947 93.5532C97.3117 93.5532 99.3099 95.5453 99.3099 97.8989C99.3099 100.331 97.3899 102.245 94.947 102.245Z" fill="url(#paint1_linear)" stroke="url(#paint2_linear)" stroke-width="0.5"/>
<defs>
<filter id="filter0_d" x="0" y="0" width="143" height="143" filterUnits="userSpaceOnUse" color-interpolation-filters="sRGB">
<feFlood flood-opacity="0" result="BackgroundImageFix"/>
<feColorMatrix in="SourceAlpha" type="matrix" values="0 0 0 0 0 0 0 0 0 0 0 0 0 0 0 0 0 0 127 0"/>
<feOffset dy="2"/>
<feGaussianBlur stdDeviation="7"/>
<feColorMatrix type="matrix" values="0 0 0 0 0 0 0 0 0 0 0 0 0 0 0 0 0 0 0.4 0"/>
<feBlend mode="normal" in2="BackgroundImageFix" result="effect1_dropShadow"/>
<feBlend mode="normal" in="SourceGraphic" in2="effect1_dropShadow" result="shape"/>
</filter>
<linearGradient id="paint0_linear" x1="14" y1="127" x2="129" y2="127" gradientUnits="userSpaceOnUse">
<stop stop-color="#0B0E38"/>
<stop offset="1" stop-color="#0C0432"/>
</linearGradient>
<linearGradient id="paint1_linear" x1="45.7351" y1="31.5754" x2="94.7457" y2="108.015" gradientUnits="userSpaceOnUse">
<stop stop-color="#3239DB"/>
<stop offset="1" stop-color="#00F0FF"/>
</linearGradient>
<linearGradient id="paint2_linear" x1="45.7351" y1="31.5754" x2="94.7457" y2="108.015" gradientUnits="userSpaceOnUse">
<stop stop-color="#3239DB"/>
<stop offset="1" stop-color="#00F0FF"/>
</linearGradient>
</defs>
</svg>
