<svg width="271" height="302" viewBox="0 0 271 302" fill="none" xmlns="http://www.w3.org/2000/svg">
<path d="M29.56 94L42 94L42 182H29.56C14.8913 182 3 170.109 3 155.44L3 120.56C3 105.891 14.8913 94 29.56 94Z" stroke="white" stroke-width="6"/>
<path d="M228.526 95H240.966C255.635 95 267.526 106.891 267.526 121.56V156.44C267.526 171.109 255.635 183 240.966 183H228.526L228.526 95Z" stroke="white" stroke-width="6"/>
<rect y="4.58947" width="23.0903" height="44.6387" rx="11.5452" transform="matrix(0.644136 0.764911 -0.644136 0.764911 199.627 242.079)" fill="#4A53EF" stroke="white" stroke-width="6"/>
<path d="M227.947 133V96C227.947 44.6375 186.31 3 134.947 3V3C83.5848 3 41.9473 44.6375 41.9473 96L41.9473 133" stroke="white" stroke-width="6"/>
<path d="M228.053 145V212.778C228.053 221.977 224.882 230.895 219.074 238.03L203.632 257" stroke="white" stroke-width="6"/>
</svg>
