<svg width="246" height="216" viewBox="0 0 246 216" fill="none" xmlns="http://www.w3.org/2000/svg">
<path d="M54.56 3L191.44 3C206.109 3 218 14.8913 218 29.56L218 206.44C218 210.063 215.063 213 211.44 213L34.56 213C30.937 213 28 210.063 28 206.44L28 29.56C28 14.8913 39.8913 3 54.56 3Z" stroke="white" stroke-width="6"/>
<rect x="3" y="196" width="240" height="17" rx="8.5" fill="#010D1B" stroke="white" stroke-width="6"/>
<rect x="48" y="28" width="47" height="25" rx="1.68" fill="#4A53EF"/>
<rect x="48" y="58" width="47" height="25" rx="1.68" fill="#4A53EF"/>
<rect x="48" y="88" width="47" height="26" rx="1.68" fill="#4A53EF"/>
<rect x="48" y="119" width="47" height="25" rx="1.68" fill="#4A53EF"/>
<rect x="104" y="28" width="60" height="8" rx="1.68" fill="#4A53EF" fill-opacity="0.5"/>
<rect x="104" y="58" width="60" height="9" rx="1.68" fill="#4A53EF" fill-opacity="0.5"/>
<rect x="104" y="88" width="60" height="9" rx="1.68" fill="#4A53EF" fill-opacity="0.5"/>
<rect x="104" y="119" width="60" height="8" rx="1.68" fill="#4A53EF" fill-opacity="0.5"/>
<rect x="104" y="39" width="94" height="12" rx="1.68" fill="#4A53EF" fill-opacity="0.5"/>
<rect x="104" y="69" width="94" height="12" rx="1.68" fill="#4A53EF" fill-opacity="0.5"/>
<rect x="104" y="100" width="94" height="11" rx="1.68" fill="#4A53EF" fill-opacity="0.5"/>
<rect x="104" y="130" width="94" height="11" rx="1.68" fill="#4A53EF" fill-opacity="0.5"/>
</svg>
