<svg width="263" height="509" viewBox="0 0 263 509" fill="none" xmlns="http://www.w3.org/2000/svg">
<path d="M185.04 236.5H188.04V235.654L187.598 234.933L185.04 236.5ZM126.54 141L129.098 139.433L126.54 135.257L123.982 139.433L126.54 141ZM185.04 331.563H182.04V333.349L183.611 334.2L185.04 331.563ZM209.635 344.893L212.635 344.893L212.635 343.107L211.065 342.256L209.635 344.893ZM209.635 443.243L208.452 446L212.635 447.795L212.635 443.243L209.635 443.243ZM158.019 421.09L159.202 418.333L157.751 417.71L156.415 418.555L158.019 421.09ZM126.54 441L124.937 443.535L126.54 444.55L128.144 443.535L126.54 441ZM95.2855 421.232L96.8891 418.697L95.554 417.852L94.1023 418.475L95.2855 421.232ZM44.0002 443.243L41.0002 443.243L41.0002 447.795L45.1834 446L44.0002 443.243ZM44 344.893L42.5705 342.256L41 343.107L41 344.893L44 344.893ZM68.0401 331.864L69.4697 334.501L71.0401 333.65V331.864H68.0401ZM68.0401 236.5L65.4819 234.933L65.0401 235.654V236.5H68.0401ZM187.598 234.933L129.098 139.433L123.982 142.567L182.482 238.067L187.598 234.933ZM188.04 331.563V236.5H182.04V331.563H188.04ZM211.065 342.256L186.47 328.925L183.611 334.2L208.206 347.531L211.065 342.256ZM212.635 443.243L212.635 344.893L206.635 344.893L206.635 443.243L212.635 443.243ZM156.836 423.847L208.452 446L210.818 440.486L159.202 418.333L156.836 423.847ZM128.144 443.535L159.623 423.626L156.415 418.555L124.937 438.465L128.144 443.535ZM93.6819 423.768L124.937 443.535L128.144 438.465L96.8891 418.697L93.6819 423.768ZM45.1834 446L96.4687 423.989L94.1023 418.475L42.817 440.486L45.1834 446ZM41 344.893L41.0002 443.243L47.0002 443.243L47 344.893L41 344.893ZM66.6106 329.226L42.5705 342.256L45.4295 347.531L69.4697 334.501L66.6106 329.226ZM65.0401 236.5V331.864H71.0401V236.5H65.0401ZM123.982 139.433L65.4819 234.933L70.5983 238.067L129.098 142.567L123.982 139.433Z" fill="white"/>
<path d="M66.0844 448.71L86.7818 439.713L76.6075 481L66.0844 448.71Z" stroke="white" stroke-width="6"/>
<path d="M184.092 448.71L163.394 439.713L173.569 481L184.092 448.71Z" stroke="white" stroke-width="6"/>
<path d="M126.54 441L104.04 427L126.54 498.5L149.04 427L126.54 441Z" stroke="white" stroke-width="6"/>
<rect x="3" y="239" width="6" height="6" fill="white"/>
<rect x="49" y="313" width="3" height="3" fill="white"/>
<rect x="237" y="421" width="6" height="6" fill="white"/>
<rect x="254" y="90" width="3" height="3" fill="white"/>
<rect x="168" y="8" width="6" height="6" fill="white"/>
<rect x="20" width="4" height="4" fill="white"/>
<rect x="93" y="58" width="3" height="3" fill="white" fill-opacity="0.2"/>
<rect x="20" y="168" width="3" height="3" fill="white" fill-opacity="0.2"/>
<rect x="251" y="154" width="3" height="3" fill="white" fill-opacity="0.2"/>
<rect x="233" y="273" width="3" height="3" fill="white" fill-opacity="0.2"/>
<rect x="189" y="114" width="5" height="5" fill="white"/>
<rect x="257" y="304" width="6" height="6" fill="white"/>
<rect x="227" y="213" width="6" height="6" fill="white"/>
<rect y="386" width="4" height="4" fill="white"/>
<rect x="64" y="152" width="5" height="5" fill="white"/>
</svg>
