<svg width="311" height="256" viewBox="0 0 311 256" fill="none" xmlns="http://www.w3.org/2000/svg">
<path fill-rule="evenodd" clip-rule="evenodd" d="M72.5 149H70.5L25.5 184.735L19.5 189.5V181.838V155V149H13.5H6H0V143V6V0H6H226H232V6V60.5H226V6H6V143H19.5H25.5V149V177.074L66.7687 144.301L68.4074 143H70.5H72.5V149ZM232 77.5V143V149H226H89.5V143H226V77.5H232Z" fill="white"/>
<path d="M242.366 212.651L288.5 249.287V215V212H291.5H308V69H82V212H240.5H241.546L242.366 212.651Z" stroke="white" stroke-width="6"/>
</svg>
