<svg width="248" height="385" viewBox="0 0 248 385" fill="none" xmlns="http://www.w3.org/2000/svg">
<path d="M132.85 171.06L172.838 21.8243L37.4402 204.517L118.095 226.128L80.9572 364.728L207.71 191.118L132.85 171.06Z" stroke="white" stroke-width="6"/>
<path d="M65.2906 193.845C64.4905 194.846 65.4812 190.758 66.5831 188.67C68.5024 185.035 70.2396 183.593 71.7508 181.525C76.0508 175.642 80.3507 169.759 84.6507 163.876C103.253 138.426 123.017 109.324 140.682 87.2169C141.482 86.2155 140.491 90.3039 139.389 92.3912C137.476 96.0152 135.725 97.4795 134.221 99.5364C129.922 105.419 125.622 111.302 121.322 117.185C102.719 142.636 82.9547 171.739 65.2906 193.845ZM138.911 92.0078C139.452 89.4567 141.147 85.6759 140.99 87.4639C140.429 93.8494 136.683 109.798 134.649 119.393C134.108 121.944 132.413 125.725 132.57 123.937C133.132 117.534 136.871 101.629 138.911 92.0078Z" fill="white"/>
</svg>
